<svg width="70" height="70" viewBox="0 0 70 70" fill="none" xmlns="http://www.w3.org/2000/svg">
<path d="M14.5833 11.6666H26.25L32.0833 26.25L24.7917 30.625C27.9153 36.9586 33.0414 42.0847 39.375 45.2083L43.75 37.9166L58.3333 43.75V55.4166C58.3333 56.9637 57.7187 58.4474 56.6248 59.5414C55.5308 60.6354 54.0471 61.25 52.5 61.25C41.1229 60.5586 30.3921 55.7272 22.3324 47.6675C14.2727 39.6078 9.44139 28.8771 8.75 17.5C8.75 15.9529 9.36458 14.4691 10.4585 13.3752C11.5525 12.2812 13.0362 11.6666 14.5833 11.6666" stroke="white" stroke-width="2" stroke-linecap="round" stroke-linejoin="round"/>
<path d="M43.75 20.4166C45.2971 20.4166 46.7808 21.0312 47.8748 22.1252C48.9688 23.2191 49.5833 24.7029 49.5833 26.25" stroke="white" stroke-width="2" stroke-linecap="round" stroke-linejoin="round"/>
<path d="M43.75 8.75C48.3913 8.75 52.8425 10.5937 56.1244 13.8756C59.4063 17.1575 61.25 21.6087 61.25 26.25" stroke="white" stroke-width="2" stroke-linecap="round" stroke-linejoin="round"/>
</svg>
