<svg width="474" height="430" viewBox="0 0 474 430" fill="none" xmlns="http://www.w3.org/2000/svg">
<g style="mix-blend-mode:overlay" opacity="0.25">
<path d="M236.814 188.509C210.759 188.509 189.442 209.723 189.442 235.652C189.442 261.581 210.759 282.795 236.814 282.795C262.869 282.795 284.186 261.581 284.186 235.652C284.186 209.723 262.869 188.509 236.814 188.509ZM378.931 235.652C378.921 215.593 374.624 195.764 366.324 177.484C358.023 159.204 345.911 142.891 330.79 129.626C315.669 116.362 297.885 106.45 278.62 100.549C259.355 94.6482 239.048 92.8933 219.049 95.4007C156.992 102.944 105.829 152.208 96.3549 213.73C88.5385 264.41 107.961 310.61 142.069 341.017C153.439 351.153 171.203 348.796 179.02 335.596L179.257 335.36C184.941 325.46 182.573 313.439 174.046 305.66C161.2 294.257 151.721 279.584 146.63 263.22C141.538 246.856 141.026 229.42 145.148 212.788C149.184 196.189 157.725 181.013 169.839 168.916C181.952 156.819 197.173 148.267 213.838 144.194C227.806 140.715 242.386 140.45 256.472 143.42C270.557 146.39 283.777 152.517 295.126 161.334C306.475 170.152 315.655 181.428 321.968 194.305C328.281 207.183 331.561 221.324 331.559 235.652C331.559 263.467 319.242 288.217 300.056 305.424C291.529 312.967 288.924 325.224 294.608 335.125L294.845 335.36C302.188 347.853 319.242 351.625 330.375 341.96C345.612 328.706 357.827 312.365 366.201 294.03C374.576 275.696 378.916 255.792 378.931 235.652ZM209.101 1.58551C99.671 13.8428 11.3214 103.651 1.13636 212.788C-2.87912 253.368 3.78862 294.289 20.4838 331.527C37.179 368.764 63.3266 401.036 96.3549 425.168C107.724 433.418 123.831 429.883 130.937 417.861C136.858 407.725 134.253 394.525 124.778 387.454C70.7738 347.618 38.3237 280.203 49.9299 205.952C62.7205 123.451 131.884 57.6861 215.26 48.4931C329.427 35.5287 426.304 124.394 426.304 235.652C426.304 298.117 395.748 353.039 348.85 387.454C339.375 394.525 336.77 407.49 342.691 417.861C349.797 430.118 365.904 433.418 377.273 425.168C407.18 403.343 431.494 374.809 448.244 341.881C464.994 308.953 473.707 272.559 473.676 235.652C473.676 96.3436 352.166 -14.6789 209.101 1.58551Z" fill="#D9FF99"/>
</g>
</svg>
