<svg width="95" height="95" viewBox="0 0 95 95" fill="none" xmlns="http://www.w3.org/2000/svg">
<path d="M27.7084 75.2083C32.0806 75.2083 35.625 71.6639 35.625 67.2917C35.625 62.9194 32.0806 59.375 27.7084 59.375C23.3361 59.375 19.7917 62.9194 19.7917 67.2917C19.7917 71.6639 23.3361 75.2083 27.7084 75.2083Z" stroke="white" stroke-width="2" stroke-linecap="round" stroke-linejoin="round"/>
<path d="M67.2917 75.2083C71.6639 75.2083 75.2083 71.6639 75.2083 67.2917C75.2083 62.9194 71.6639 59.375 67.2917 59.375C62.9194 59.375 59.375 62.9194 59.375 67.2917C59.375 71.6639 62.9194 75.2083 67.2917 75.2083Z" stroke="white" stroke-width="2" stroke-linecap="round" stroke-linejoin="round"/>
<path d="M51.4584 23.75H71.25L83.125 43.5416M19.7917 67.2916H11.875V51.4583L19.7917 67.2916ZM7.91669 19.7916H51.4584V67.2916L7.91669 19.7916ZM35.625 67.2916H59.375H35.625ZM75.2084 67.2916H83.125V43.5416H51.4584L75.2084 67.2916Z" stroke="white" stroke-width="2" stroke-linecap="round" stroke-linejoin="round"/>
<path d="M11.875 35.625H27.7083" stroke="white" stroke-width="2" stroke-linecap="round" stroke-linejoin="round"/>
</svg>
